<svg width="450" height="450" viewBox="0 0 450 450" fill="none" xmlns="http://www.w3.org/2000/svg">
<rect width="450" height="450" rx="100" fill="#131313"/>
<path d="M123.85 302C121.95 302 121 301.037 121 299.112V150.888C121 148.963 121.95 148 123.85 148H196.231C197.979 148 199.499 148.616 200.791 149.848L223.588 172.954C224.804 174.264 225.412 175.804 225.412 177.575V299.112C225.412 301.037 224.462 302 222.562 302H180.843C178.943 302 177.993 301.037 177.993 299.112V194.212H168.419V299.112C168.419 301.037 167.469 302 165.569 302H123.85Z" fill="white"/>
<path d="M264.167 302C262.42 302 260.9 301.345 259.608 300.036L236.811 276.93C235.595 275.698 234.987 274.158 234.987 272.309V177.806C234.987 175.881 235.937 174.918 237.836 174.918H273.856C275.756 174.918 276.706 175.881 276.706 177.806V254.864C276.706 258.022 278.302 259.601 281.493 259.601H286.281V177.806C286.281 175.881 287.231 174.918 289.13 174.918H325.15C327.05 174.918 328 175.881 328 177.806V299.112C328 301.037 327.05 302 325.15 302H264.167Z" fill="white"/>
</svg>
